<svg id="Layer_2" data-name="Layer 2" xmlns="http://www.w3.org/2000/svg" xmlns:xlink="http://www.w3.org/1999/xlink" viewBox="0 0 571.01 455.21"><defs><radialGradient id="radial-gradient" cx="290.02" cy="400" r="203.24" gradientUnits="userSpaceOnUse"><stop offset="0" stop-color="#4bb649"/><stop offset="0.2" stop-color="#46ad45"/><stop offset="0.54" stop-color="#379539"/><stop offset="0.96" stop-color="#1f6d27"/><stop offset="1" stop-color="#1c6925"/></radialGradient><radialGradient id="radial-gradient-2" cx="556.15" cy="388.73" r="158.35" xlink:href="#radial-gradient"/><radialGradient id="radial-gradient-3" cx="412.23" cy="312.58" r="32.42" xlink:href="#radial-gradient"/><radialGradient id="radial-gradient-4" cx="486.89" cy="388.73" r="89.3" xlink:href="#radial-gradient"/><radialGradient id="radial-gradient-5" cx="334.55" cy="395.24" r="122.45" xlink:href="#radial-gradient"/></defs><title>logo</title><path d="M399.61,211.17s-189.69-118.75-273,59.37c-37.24,79.65,16.46,167.35,89.89,221C273.8,533.4,365,597.91,465.55,627.61c0,0-315.24-194.61-253.16-343C226.2,251.54,275.89,175.71,399.61,211.17Z" transform="translate(-114.5 -172.39)" style="fill:url(#radial-gradient)"/><path d="M451.54,238.37s212.75-111.3,233.36,78.35c11.48,105.57-144.31,207-258.1,254.82,0,0,191.2-144.72,191.31-242.45C618.16,281.67,569.37,206,451.54,238.37Z" transform="translate(-114.5 -172.39)" style="fill:url(#radial-gradient-2)"/><path d="M444.64,312.59a32.42,32.42,0,1,1-32.41-32.43,32.4,32.4,0,0,1,32.41,32.43Z" transform="translate(-114.5 -172.39)" style="fill:url(#radial-gradient-3)"/><path d="M515.78,273.15a1.49,1.49,0,0,0-2.55.81c-7.55,44.41-53.53,81.81-66,109.33-18.47,40.66-9.33,88.55,9.72,120.11.66,1.09,2.64,2.06,2.29.83-9.72-33.49-7.56-111.3,45.38-157.22-26.87,31.67-50.23,85.9-40.51,154.51.18,1.34,1.8,1.26,2-.08,9.38-58.93,65-89.05,70.38-144.17,2.1-21.21-12.67-73.42-20.67-84.12Z" transform="translate(-114.5 -172.39)" style="fill:url(#radial-gradient-4)"/><path d="M346.57,351.23c-29.8-11.64-90.36-31.82-79.56-105.44.15-1.06-.91-.33-1.49.64-25.39,42.68-19.06,96.76-7,125.88,10.75,26,42.14,69.16,83.74,75.1,30.79,4.4,59.57,30.78,31.34,97.79,13.73-7.71,23.62-66.55,17.83-86.44-12.42-42.68-78.88-41.61-100.48-85.37-.48-1-3.73-9.73-3-8.9,43.23,52.42,93.8,44.55,110,87.25,12.36,32.57-8.7,78.69-3.89,78.87,4.44.17,27-51.82,27.11-70.78.29-38.9-24.85-89.15-74.55-108.6Z" transform="translate(-114.5 -172.39)" style="fill:url(#radial-gradient-5)"/></svg>